<svg width="20" height="20" viewBox="0 0 20 20" fill="none" xmlns="http://www.w3.org/2000/svg">
<path d="M0 10C0 14 2.25 17.375 5.625 19L0.875 5.875C0.25 7.125 0 8.5 0 10Z" fill="white"/>
<path d="M16.75 9.5C16.75 8.25 16.25 7.375 15.875 6.75C15.375 5.875 15 5.25 15 4.375C15 3.5 15.75 2.625 16.625 2.625H16.75C15 1 12.625 0 10 0C6.5 0 3.375 1.75 1.625 4.5C1.875 4.5 5 4.375 5 4.375C5.5 4.375 5.625 5.125 5.125 5.25C5.125 5.25 4.625 5.375 4 5.375L7.5 16.125L9.75 9.5L8.125 5.25C7.625 5.25 7.125 5.125 7.125 5.125C6.625 5.125 6.625 4.25 7.25 4.25C7.25 4.25 8.875 4.375 9.875 4.375C10.875 4.375 12.5 4.25 12.5 4.25C13 4.25 13.125 5 12.625 5.125C12.625 5.125 12.125 5.25 11.5 5.25L15.125 16L16.125 12.625C16.375 11.375 16.75 10.375 16.75 9.5Z" fill="white"/>
<path d="M10.125 10.875L7.125 19.625C8.125 19.875 9 20 10 20C11.125 20 12.25 19.75 13.375 19.375C13.375 19.375 13.375 19.25 13.25 19.25L10.125 10.875Z" fill="white"/>
<path d="M18.75 5.25C18.75 5.625 18.875 5.875 18.875 6.25C18.875 7.25 18.625 8.375 18.125 9.875L15 18.625C18 16.875 20 13.625 20 10C20 8.25 19.5 6.625 18.75 5.25Z" fill="white"/>
</svg>
