<svg width="87" height="50" viewBox="0 0 87 50" fill="none" xmlns="http://www.w3.org/2000/svg">
<path d="M40.4286 1H16.4286L13.6735 9.57143H40.4286V1Z" fill="#E3E0D9"/>
<path d="M6.68815 33.5714C6.25376 33.5714 5.86905 33.8519 5.73612 34.2654L1.83958 46.388C1.4246 47.679 2.38755 49 3.74364 49H38.4286C39.5331 49 40.4286 48.1046 40.4286 47V34.5714C40.4286 34.0191 39.9809 33.5714 39.4286 33.5714H6.68815Z" fill="#F2E4C0"/>
<path d="M48.2857 33.5714C47.7334 33.5714 47.2857 34.0191 47.2857 34.5714V47C47.2857 48.1046 48.1811 49 49.2857 49H83.9706C85.3267 49 86.2897 47.679 85.8747 46.388L81.9782 34.2654C81.8452 33.8519 81.4605 33.5714 81.0261 33.5714H48.2857Z" fill="#E3E0D9"/>
<path d="M71.2857 1L74.0408 9.57143H47.2857V1H71.2857Z" fill="#C8E0E8"/>
<path d="M16.4286 1V0.25H15.8819L15.7146 0.770493L16.4286 1ZM40.4286 1H41.1786V0.25H40.4286V1ZM13.6735 9.57143L12.9594 9.34192L12.6446 10.3214H13.6735V9.57143ZM40.4286 9.57143V10.3214H41.1786V9.57143H40.4286ZM11.4694 16.4286V15.6786H10.9227L10.7554 16.1991L11.4694 16.4286ZM76.2449 16.4286L76.9589 16.1991L76.7916 15.6786H76.2449V16.4286ZM74.0408 9.57143V10.3214H75.0697L74.7548 9.34192L74.0408 9.57143ZM71.2857 1L71.9997 0.770492L71.8324 0.25H71.2857V1ZM47.2857 9.57143H46.5357V10.3214H47.2857V9.57143ZM47.2857 1V0.25H46.5357V1H47.2857ZM79.1312 25.4083L78.4172 25.6378L79.1312 25.4083ZM81.9782 34.2654L81.2641 34.4949L81.9782 34.2654ZM85.8747 46.388L85.1607 46.6175L85.8747 46.388ZM5.73612 34.2654L5.0221 34.0359L5.73612 34.2654ZM8.58306 25.4083L9.29708 25.6378L8.58306 25.4083ZM16.4286 1.75H40.4286V0.25H16.4286V1.75ZM14.3875 9.80094L17.1426 1.22951L15.7146 0.770493L12.9594 9.34192L14.3875 9.80094ZM40.4286 8.82143H13.6735V10.3214H40.4286V8.82143ZM39.6786 1V9.57143H41.1786V1H39.6786ZM10.7554 16.1991L7.86904 25.1788L9.29708 25.6378L12.1834 16.6581L10.7554 16.1991ZM5.0221 34.0359L1.12556 46.1585L2.5536 46.6175L6.45014 34.4949L5.0221 34.0359ZM3.74364 49.75H38.4286V48.25H3.74364V49.75ZM41.1786 47V34.5714H39.6786V47H41.1786ZM39.4286 32.8214H6.68815V34.3214H39.4286V32.8214ZM48.0357 47V34.5714H46.5357V47H48.0357ZM83.9706 48.25H49.2857V49.75H83.9706V48.25ZM81.2641 34.4949L85.1607 46.6175L86.5887 46.1585L82.6922 34.0359L81.2641 34.4949ZM81.0261 32.8214H48.2857V34.3214H81.0261V32.8214ZM75.5309 16.6581L78.4172 25.6378L79.8452 25.1788L76.9589 16.1991L75.5309 16.6581ZM74.7548 9.34192L71.9997 0.770492L70.5717 1.22951L73.3268 9.80094L74.7548 9.34192ZM47.2857 10.3214H74.0408V8.82143H47.2857V10.3214ZM46.5357 1V9.57143H48.0357V1H46.5357ZM71.2857 0.25H47.2857V1.75H71.2857V0.25ZM9.53509 27.4643H78.1792V25.9643H9.53509V27.4643ZM11.4694 17.1786H76.2449V15.6786H11.4694V17.1786ZM78.4172 25.6378C78.4691 25.7992 78.3487 25.9643 78.1792 25.9643V27.4643C79.3658 27.4643 80.2084 26.3084 79.8452 25.1788L78.4172 25.6378ZM82.6922 34.0359C82.4596 33.3122 81.7863 32.8214 81.0261 32.8214V34.3214C81.1347 34.3214 81.2309 34.3915 81.2641 34.4949L82.6922 34.0359ZM83.9706 49.75C85.8353 49.75 87.1593 47.9336 86.5887 46.1585L85.1607 46.6175C85.42 47.4244 84.8182 48.25 83.9706 48.25V49.75ZM48.0357 34.5714C48.0357 34.4334 48.1476 34.3214 48.2857 34.3214V32.8214C47.3192 32.8214 46.5357 33.6049 46.5357 34.5714H48.0357ZM46.5357 47C46.5357 48.5188 47.7669 49.75 49.2857 49.75V48.25C48.5954 48.25 48.0357 47.6904 48.0357 47H46.5357ZM41.1786 34.5714C41.1786 33.6049 40.3951 32.8214 39.4286 32.8214V34.3214C39.5666 34.3214 39.6786 34.4334 39.6786 34.5714H41.1786ZM38.4286 49.75C39.9474 49.75 41.1786 48.5188 41.1786 47H39.6786C39.6786 47.6904 39.1189 48.25 38.4286 48.25V49.75ZM1.12556 46.1585C0.554968 47.9336 1.87902 49.75 3.74364 49.75V48.25C2.89608 48.25 2.29424 47.4244 2.5536 46.6175L1.12556 46.1585ZM6.45014 34.4949C6.48337 34.3915 6.57955 34.3214 6.68815 34.3214V32.8214C5.92796 32.8214 5.25472 33.3122 5.0221 34.0359L6.45014 34.4949ZM7.86904 25.1788C7.50594 26.3084 8.34852 27.4643 9.53509 27.4643V25.9643C9.36558 25.9643 9.24521 25.7992 9.29708 25.6378L7.86904 25.1788Z" fill="#2D3E4F"/>
</svg>
